# xmcd
#
# Track frame offsets: 
#        150
#        14300
#        26580
#        42985
#        54457
#        67812
#        80065
#        92297
#        103450
#        115342
#        128747
#        140557
#
# Disc length: 2024 seconds
#
# Revision: 2
# Processed by: cddbd v1.5.2PL0 Copyright (c) Steve Scherf et al.
# Submitted via: ExactAudioCopy v0.95b4
#
DISCID=9e07e60c
DTITLE=Various Artist - The Country You Keep
DYEAR=1995
DGENRE=Country
TTITLE0=Lee Greenwood - Dixie Road
TTITLE1=Jeanne Pruett - Satin Sheets
TTITLE2=Dickey Lee - Rocky
TTITLE3=The Kendalls - Heaven's Just A Sin Away
TTITLE4=Johnny Paycheck - She's All I Got
TTITLE5=Lynn Anderson - How Can I Unlove You
TTITLE6=Merle Haggard - Working Man Blues
TTITLE7=Don Gibson - Oh, Lonsome Me
TTITLE8=Skeeter Davis - End Of The World
TTITLE9=Dave Dudley - The Pool Shark
TTITLE10=Conway Twitty - Linda On My Mind
TTITLE11=Kitty Wells - Heartbreak USA
EXTD=
EXTT0=
EXTT1=
EXTT2=
EXTT3=
EXTT4=
EXTT5=
EXTT6=
EXTT7=
EXTT8=
EXTT9=
EXTT10=
EXTT11=
PLAYORDER=
